<?xml version="1.0" encoding="UTF-8" standalone="no"?>
<!DOCTYPE svg PUBLIC "-//W3C//DTD SVG 1.1//EN"
 "http://www.w3.org/Graphics/SVG/1.1/DTD/svg11.dtd">
<!-- Generated by graphviz version 2.40.1 (20161225.0304)
 -->
<!-- Title: %0 Pages: 1 -->
<svg width="401pt" height="332pt"
 viewBox="0.00 0.00 401.30 332.00" xmlns="http://www.w3.org/2000/svg" xmlns:xlink="http://www.w3.org/1999/xlink">
<g id="graph0" class="graph" transform="scale(1 1) rotate(0) translate(4 328)">
<title>%0</title>
<polygon fill="#ffffff" stroke="transparent" points="-4,4 -4,-328 397.2991,-328 397.2991,4 -4,4"/>
<!-- roadmapPending -->
<g id="node1" class="node">
<title>roadmapPending</title>
<ellipse fill="none" stroke="#000000" cx="195.0369" cy="-306" rx="91.4387" ry="18"/>
<text text-anchor="middle" x="195.0369" y="-301.8" font-family="Times,serif" font-size="14.00" fill="#000000">Road&#45;map (pending)</text>
</g>
<!-- roadmapApproved -->
<g id="node2" class="node">
<title>roadmapApproved</title>
<ellipse fill="none" stroke="#000000" cx="96.0369" cy="-162" rx="96.0739" ry="18"/>
<text text-anchor="middle" x="96.0369" y="-157.8" font-family="Times,serif" font-size="14.00" fill="#000000">Road&#45;map (approved)</text>
</g>
<!-- roadmapPending&#45;&gt;roadmapApproved -->
<g id="edge1" class="edge">
<title>roadmapPending&#45;&gt;roadmapApproved</title>
<path fill="none" stroke="#000000" d="M182.6987,-288.0535C165.5062,-263.0462 134.219,-217.5376 114.3144,-188.5853"/>
<polygon fill="#000000" stroke="#000000" points="117.0802,-186.4303 108.5307,-180.1727 111.3119,-190.396 117.0802,-186.4303"/>
</g>
<!-- discussion -->
<g id="node3" class="node">
<title>discussion</title>
<ellipse fill="none" stroke="#000000" cx="274.0369" cy="-234" rx="89.7479" ry="18"/>
<text text-anchor="middle" x="274.0369" y="-229.8" font-family="Times,serif" font-size="14.00" fill="#000000">Discussion (1 week)</text>
</g>
<!-- roadmapPending&#45;&gt;discussion -->
<g id="edge6" class="edge">
<title>roadmapPending&#45;&gt;discussion</title>
<path fill="none" stroke="#000000" stroke-dasharray="5,2" d="M214.565,-288.2022C224.4187,-279.2217 236.5227,-268.1902 247.233,-258.4289"/>
<polygon fill="#000000" stroke="#000000" points="249.7001,-260.9159 254.7335,-251.593 244.9849,-255.7423 249.7001,-260.9159"/>
</g>
<!-- prApproved -->
<g id="node6" class="node">
<title>prApproved</title>
<ellipse fill="none" stroke="#000000" cx="195.0369" cy="-18" rx="101.8477" ry="18"/>
<text text-anchor="middle" x="195.0369" y="-13.8" font-family="Times,serif" font-size="14.00" fill="#000000">Pull request (approved)</text>
</g>
<!-- roadmapApproved&#45;&gt;prApproved -->
<g id="edge4" class="edge">
<title>roadmapApproved&#45;&gt;prApproved</title>
<path fill="none" stroke="#000000" d="M108.3752,-144.0535C125.5677,-119.0462 156.8548,-73.5376 176.7595,-44.5853"/>
<polygon fill="#000000" stroke="#000000" points="179.762,-46.396 182.5432,-36.1727 173.9937,-42.4303 179.762,-46.396"/>
</g>
<!-- discussion&#45;&gt;roadmapApproved -->
<g id="edge2" class="edge">
<title>discussion&#45;&gt;roadmapApproved</title>
<path fill="none" stroke="#000000" d="M234.0903,-217.8418C208.0503,-207.3088 173.8629,-193.4802 146.0244,-182.2197"/>
<polygon fill="#000000" stroke="#000000" points="147.0489,-178.8586 136.4661,-178.3534 144.424,-185.3479 147.0489,-178.8586"/>
</g>
<!-- prDraft -->
<g id="node4" class="node">
<title>prDraft</title>
<ellipse fill="none" stroke="#000000" stroke-dasharray="5,2" cx="294.0369" cy="-162" rx="83.9431" ry="18"/>
<text text-anchor="middle" x="294.0369" y="-157.8" font-family="Times,serif" font-size="14.00" fill="#000000">Pull request (draft)</text>
</g>
<!-- discussion&#45;&gt;prDraft -->
<g id="edge7" class="edge">
<title>discussion&#45;&gt;prDraft</title>
<path fill="none" stroke="#000000" stroke-dasharray="5,2" d="M279.0838,-215.8314C281.2463,-208.0463 283.8222,-198.7729 286.2217,-190.1347"/>
<polygon fill="#000000" stroke="#000000" points="289.6179,-190.9852 288.9221,-180.4133 282.8733,-189.1117 289.6179,-190.9852"/>
</g>
<!-- prPending -->
<g id="node5" class="node">
<title>prPending</title>
<ellipse fill="none" stroke="#000000" cx="294.0369" cy="-90" rx="96.7119" ry="18"/>
<text text-anchor="middle" x="294.0369" y="-85.8" font-family="Times,serif" font-size="14.00" fill="#000000">Pull request (pending)</text>
</g>
<!-- discussion&#45;&gt;prPending -->
<g id="edge3" class="edge">
<title>discussion&#45;&gt;prPending</title>
<path fill="none" stroke="#000000" d="M332.3002,-220.1884C353.2594,-212.1056 374.7456,-199.4965 387.0369,-180 395.5698,-166.4652 395.0198,-157.8663 387.0369,-144 378.7057,-129.5286 364.8445,-118.5778 350.3342,-110.454"/>
<polygon fill="#000000" stroke="#000000" points="351.7488,-107.2451 341.2593,-105.7548 348.53,-113.4612 351.7488,-107.2451"/>
</g>
<!-- prDraft&#45;&gt;prPending -->
<g id="edge8" class="edge">
<title>prDraft&#45;&gt;prPending</title>
<path fill="none" stroke="#000000" stroke-dasharray="5,2" d="M294.0369,-143.8314C294.0369,-136.131 294.0369,-126.9743 294.0369,-118.4166"/>
<polygon fill="#000000" stroke="#000000" points="297.537,-118.4132 294.0369,-108.4133 290.537,-118.4133 297.537,-118.4132"/>
</g>
<!-- prPending&#45;&gt;prApproved -->
<g id="edge5" class="edge">
<title>prPending&#45;&gt;prApproved</title>
<path fill="none" stroke="#000000" d="M269.8188,-72.3868C257.1143,-63.1472 241.3725,-51.6986 227.6138,-41.6922"/>
<polygon fill="#000000" stroke="#000000" points="229.4941,-38.7321 219.3482,-35.6809 225.3769,-44.3932 229.4941,-38.7321"/>
</g>
</g>
</svg>
